<?xml version="1.0" standalone="no"?>
<!DOCTYPE svg PUBLIC "-//W3C//DTD SVG 20010904//EN"
 "http://www.w3.org/TR/2001/REC-SVG-20010904/DTD/svg10.dtd">
<svg version="1.0" xmlns="http://www.w3.org/2000/svg"
 width="128.000000pt" height="128.000000pt" viewBox="0 0 128.000000 128.000000"
 preserveAspectRatio="xMidYMid meet">
<metadata>
Created by potrace 1.14, written by Peter Selinger 2001-2017
</metadata>
<g transform="translate(0.000000,128.000000) scale(0.100000,-0.100000)"
fill="#000000" stroke="none">
<path d="M130 635 l0 -515 148 2 147 3 1 135 c1 74 2 140 3 145 1 7 103 10
291 10 l290 0 0 72 c0 69 1 73 23 74 12 0 45 1 72 2 l50 2 3 218 c2 201 1 217
-15 218 -10 0 -44 1 -75 2 l-58 1 0 73 0 73 -440 0 -440 0 0 -515z m670 366
l65 -1 0 -217 0 -218 -217 -1 c-120 -1 -219 1 -219 5 -1 3 -2 100 -3 216 l-1
210 55 5 c30 3 100 4 155 3 55 -1 129 -2 165 -2z"/>
</g>
</svg>
